<svg version="1.1" xmlns="http://www.w3.org/2000/svg" xmlns:xlink="http://www.w3.org/1999/xlink" width="732" height="1165"><defs/><g><g transform="translate(-142,-54) scale(1,1)"><rect fill="#C0C0C0" stroke="none" x="311" y="71" width="160" height="190" opacity="0.2"/></g><g transform="translate(-142,-54) scale(1,1)"><rect fill="#ffffff" stroke="none" x="304" y="64" width="160" height="190"/></g><g transform="translate(-142,-54) scale(1,1)"><path fill="none" stroke="#000000" d="M 304 64 L 464 64 L 464 254 L 304 254 L 304 64 Z Z" stroke-miterlimit="10"/></g><g transform="translate(-142,-54) scale(1,1)"><path fill="none" stroke="#000000" d="M 304 89 L 464 89" stroke-miterlimit="10"/></g><g transform="translate(-142,-54) scale(1,1)"><path fill="none" stroke="#000000" d="M 304 202 L 464 202" stroke-miterlimit="10"/></g><g transform="translate(-142,-54) scale(1,1)"><g><path fill="none" stroke="none"/><text fill="#000000" stroke="none" font-family="Arial" font-size="13px" font-style="normal" font-weight="bold" text-decoration="none" x="369.54638671875" y="82">User</text></g></g><g transform="translate(-142,-54) scale(1,1)"><g><path fill="none" stroke="none"/><text fill="#000000" stroke="none" font-family="Arial" font-size="13px" font-style="normal" font-weight="normal" text-decoration="none" x="309" y="105">+id: string</text></g></g><g transform="translate(-142,-54) scale(1,1)"><g><path fill="none" stroke="none"/><text fill="#000000" stroke="none" font-family="Arial" font-size="13px" font-style="normal" font-weight="normal" text-decoration="none" x="309" y="120">+firstName: string</text></g></g><g transform="translate(-142,-54) scale(1,1)"><g><path fill="none" stroke="none"/><text fill="#000000" stroke="none" font-family="Arial" font-size="13px" font-style="normal" font-weight="normal" text-decoration="none" x="309" y="135">+lastName: string</text></g></g><g transform="translate(-142,-54) scale(1,1)"><g><path fill="none" stroke="none"/><text fill="#000000" stroke="none" font-family="Arial" font-size="13px" font-style="normal" font-weight="normal" text-decoration="none" x="309" y="150">+email: string</text></g></g><g transform="translate(-142,-54) scale(1,1)"><g><path fill="none" stroke="none"/><text fill="#000000" stroke="none" font-family="Arial" font-size="13px" font-style="normal" font-weight="normal" text-decoration="none" x="309" y="165">+phone: string</text></g></g><g transform="translate(-142,-54) scale(1,1)"><g><path fill="none" stroke="none"/><text fill="#000000" stroke="none" font-family="Arial" font-size="13px" font-style="normal" font-weight="normal" text-decoration="none" x="309" y="180">+password: string</text></g></g><g transform="translate(-142,-54) scale(1,1)"><g><path fill="none" stroke="none"/><text fill="#000000" stroke="none" font-family="Arial" font-size="13px" font-style="normal" font-weight="normal" text-decoration="none" x="309" y="195">+roleId: Role</text></g></g><g transform="translate(-142,-54) scale(1,1)"><g><path fill="none" stroke="none"/><text fill="#000000" stroke="none" font-family="Arial" font-size="13px" font-style="normal" font-weight="normal" text-decoration="none" x="309" y="218">+getUsers()</text></g></g><g transform="translate(-142,-54) scale(1,1)"><g><path fill="none" stroke="none"/><text fill="#000000" stroke="none" font-family="Arial" font-size="13px" font-style="normal" font-weight="normal" text-decoration="none" x="309" y="233">+login()</text></g></g><g transform="translate(-142,-54) scale(1,1)"><g><path fill="none" stroke="none"/><text fill="#000000" stroke="none" font-family="Arial" font-size="13px" font-style="normal" font-weight="normal" text-decoration="none" x="309" y="248">+register()</text></g></g><g transform="translate(-142,-54) scale(1,1)"><rect fill="#C0C0C0" stroke="none" x="159" y="463" width="135" height="87" opacity="0.2"/></g><g transform="translate(-142,-54) scale(1,1)"><rect fill="#ffffff" stroke="none" x="152" y="456" width="135" height="87"/></g><g transform="translate(-142,-54) scale(1,1)"><path fill="none" stroke="#000000" d="M 152 456 L 287 456 L 287 543 L 152 543 L 152 456 Z Z" stroke-miterlimit="10"/></g><g transform="translate(-142,-54) scale(1,1)"><path fill="none" stroke="#000000" d="M 152 481 L 287 481" stroke-miterlimit="10"/></g><g transform="translate(-142,-54) scale(1,1)"><path fill="none" stroke="#000000" d="M 152 534 L 287 534" stroke-miterlimit="10"/></g><g transform="translate(-142,-54) scale(1,1)"><g><path fill="none" stroke="none"/><text fill="#000000" stroke="none" font-family="Arial" font-size="13px" font-style="normal" font-weight="bold" text-decoration="none" x="205.41455078125" y="474">Role</text></g></g><g transform="translate(-142,-54) scale(1,1)"><g><path fill="none" stroke="none"/><text fill="#000000" stroke="none" font-family="Arial" font-size="13px" font-style="normal" font-weight="normal" text-decoration="none" x="157" y="497">+id: string</text></g></g><g transform="translate(-142,-54) scale(1,1)"><g><path fill="none" stroke="none"/><text fill="#000000" stroke="none" font-family="Arial" font-size="13px" font-style="normal" font-weight="normal" text-decoration="none" x="157" y="512">+name: string</text></g></g><g transform="translate(-142,-54) scale(1,1)"><g><path fill="none" stroke="none"/><text fill="#000000" stroke="none" font-family="Arial" font-size="13px" font-style="normal" font-weight="normal" text-decoration="none" x="157" y="527">+description: string</text></g></g><g transform="translate(-142,-54) scale(1,1)"><path fill="none" stroke="#000000" d="M 240 455 L 337 255" stroke-miterlimit="10"/></g><g transform="translate(-142,-54) scale(1,1)"><g><path fill="none" stroke="none"/><text fill="#000000" stroke="none" font-family="Arial" font-size="13px" font-style="normal" font-weight="normal" text-decoration="none" x="256.5" y="451">1</text></g></g><g transform="translate(-142,-54) scale(1,1)"><g><path fill="none" stroke="none"/><text fill="#000000" stroke="none" font-family="Arial" font-size="13px" font-style="normal" font-weight="normal" text-decoration="none" x="337.5" y="278">1..*</text></g></g><g transform="translate(-142,-54) scale(1,1)"><rect fill="#C0C0C0" stroke="none" x="671" y="111" width="159" height="132" opacity="0.2"/></g><g transform="translate(-142,-54) scale(1,1)"><rect fill="#ffffff" stroke="none" x="664" y="104" width="159" height="132"/></g><g transform="translate(-142,-54) scale(1,1)"><path fill="none" stroke="#000000" d="M 664 104 L 823 104 L 823 236 L 664 236 L 664 104 Z Z" stroke-miterlimit="10"/></g><g transform="translate(-142,-54) scale(1,1)"><path fill="none" stroke="#000000" d="M 664 129 L 823 129" stroke-miterlimit="10"/></g><g transform="translate(-142,-54) scale(1,1)"><path fill="none" stroke="#000000" d="M 664 227 L 823 227" stroke-miterlimit="10"/></g><g transform="translate(-142,-54) scale(1,1)"><g><path fill="none" stroke="none"/><text fill="#000000" stroke="none" font-family="Arial" font-size="13px" font-style="normal" font-weight="bold" text-decoration="none" x="707.753173828125" y="122">Notification</text></g></g><g transform="translate(-142,-54) scale(1,1)"><g><path fill="none" stroke="none"/><text fill="#000000" stroke="none" font-family="Arial" font-size="13px" font-style="normal" font-weight="normal" text-decoration="none" x="669" y="145">+id: string</text></g></g><g transform="translate(-142,-54) scale(1,1)"><g><path fill="none" stroke="none"/><text fill="#000000" stroke="none" font-family="Arial" font-size="13px" font-style="normal" font-weight="normal" text-decoration="none" x="669" y="160">+userId: User</text></g></g><g transform="translate(-142,-54) scale(1,1)"><g><path fill="none" stroke="none"/><text fill="#000000" stroke="none" font-family="Arial" font-size="13px" font-style="normal" font-weight="normal" text-decoration="none" x="669" y="175">+title: string</text></g></g><g transform="translate(-142,-54) scale(1,1)"><g><path fill="none" stroke="none"/><text fill="#000000" stroke="none" font-family="Arial" font-size="13px" font-style="normal" font-weight="normal" text-decoration="none" x="669" y="190">+description: string</text></g></g><g transform="translate(-142,-54) scale(1,1)"><g><path fill="none" stroke="none"/><text fill="#000000" stroke="none" font-family="Arial" font-size="13px" font-style="normal" font-weight="normal" text-decoration="none" x="669" y="205">+isRead: boolean</text></g></g><g transform="translate(-142,-54) scale(1,1)"><g><path fill="none" stroke="none"/><text fill="#000000" stroke="none" font-family="Arial" font-size="13px" font-style="normal" font-weight="normal" text-decoration="none" x="669" y="219.5">+type: enum</text></g></g><g transform="translate(-142,-54) scale(1,1)"><path fill="none" stroke="#000000" d="M 663 168 L 465 161" stroke-miterlimit="10"/></g><g transform="translate(-142,-54) scale(1,1)"><g><path fill="none" stroke="none"/><text fill="#000000" stroke="none" font-family="Arial" font-size="13px" font-style="normal" font-weight="normal" text-decoration="none" x="626.5" y="156">0..*</text></g></g><g transform="translate(-142,-54) scale(1,1)"><g><path fill="none" stroke="none"/><text fill="#000000" stroke="none" font-family="Arial" font-size="13px" font-style="normal" font-weight="normal" text-decoration="none" x="476.5" y="152">1</text></g></g><g transform="translate(-142,-54) scale(1,1)"><rect fill="#C0C0C0" stroke="none" x="455" y="399" width="143" height="265" opacity="0.2"/></g><g transform="translate(-142,-54) scale(1,1)"><rect fill="#ffffff" stroke="none" x="448" y="392" width="143" height="265"/></g><g transform="translate(-142,-54) scale(1,1)"><path fill="none" stroke="#000000" d="M 448 392 L 591 392 L 591 657 L 448 657 L 448 392 Z Z" stroke-miterlimit="10"/></g><g transform="translate(-142,-54) scale(1,1)"><path fill="none" stroke="#000000" d="M 448 417 L 591 417" stroke-miterlimit="10"/></g><g transform="translate(-142,-54) scale(1,1)"><path fill="none" stroke="#000000" d="M 448 575 L 591 575" stroke-miterlimit="10"/></g><g transform="translate(-142,-54) scale(1,1)"><g><path fill="none" stroke="none"/><text fill="#000000" stroke="none" font-family="Arial" font-size="13px" font-style="normal" font-weight="bold" text-decoration="none" x="507.582275390625" y="410">Trip</text></g></g><g transform="translate(-142,-54) scale(1,1)"><g><path fill="none" stroke="none"/><text fill="#000000" stroke="none" font-family="Arial" font-size="13px" font-style="normal" font-weight="normal" text-decoration="none" x="453" y="433">+id: string</text></g></g><g transform="translate(-142,-54) scale(1,1)"><g><path fill="none" stroke="none"/><text fill="#000000" stroke="none" font-family="Arial" font-size="13px" font-style="normal" font-weight="normal" text-decoration="none" x="453" y="448">+driverId: User</text></g></g><g transform="translate(-142,-54) scale(1,1)"><g><path fill="none" stroke="none"/><text fill="#000000" stroke="none" font-family="Arial" font-size="13px" font-style="normal" font-weight="normal" text-decoration="none" x="453" y="463">+vehicleId: Vehicle</text></g></g><g transform="translate(-142,-54) scale(1,1)"><g><path fill="none" stroke="none"/><text fill="#000000" stroke="none" font-family="Arial" font-size="13px" font-style="normal" font-weight="normal" text-decoration="none" x="453" y="478">+startLocation: string</text></g></g><g transform="translate(-142,-54) scale(1,1)"><g><path fill="none" stroke="none"/><text fill="#000000" stroke="none" font-family="Arial" font-size="13px" font-style="normal" font-weight="normal" text-decoration="none" x="453" y="493">+endLocation: string</text></g></g><g transform="translate(-142,-54) scale(1,1)"><g><path fill="none" stroke="none"/><text fill="#000000" stroke="none" font-family="Arial" font-size="13px" font-style="normal" font-weight="normal" text-decoration="none" x="453" y="508">+startDate: Date</text></g></g><g transform="translate(-142,-54) scale(1,1)"><g><path fill="none" stroke="none"/><text fill="#000000" stroke="none" font-family="Arial" font-size="13px" font-style="normal" font-weight="normal" text-decoration="none" x="453" y="523">+endDate: Date</text></g></g><g transform="translate(-142,-54) scale(1,1)"><g><path fill="none" stroke="none"/><text fill="#000000" stroke="none" font-family="Arial" font-size="13px" font-style="normal" font-weight="normal" text-decoration="none" x="453" y="537.5">+status: enum</text></g></g><g transform="translate(-142,-54) scale(1,1)"><g><path fill="none" stroke="none"/><text fill="#000000" stroke="none" font-family="Arial" font-size="13px" font-style="normal" font-weight="normal" text-decoration="none" x="453" y="553">+fuelLiters: number</text></g></g><g transform="translate(-142,-54) scale(1,1)"><g><path fill="none" stroke="none"/><text fill="#000000" stroke="none" font-family="Arial" font-size="13px" font-style="normal" font-weight="normal" text-decoration="none" x="453" y="568">+remarks: string</text></g></g><g transform="translate(-142,-54) scale(1,1)"><g><path fill="none" stroke="none"/><text fill="#000000" stroke="none" font-family="Arial" font-size="13px" font-style="normal" font-weight="normal" text-decoration="none" x="453" y="591">+createTrip()</text></g></g><g transform="translate(-142,-54) scale(1,1)"><g><path fill="none" stroke="none"/><text fill="#000000" stroke="none" font-family="Arial" font-size="13px" font-style="normal" font-weight="normal" text-decoration="none" x="453" y="606">+updateTrip()</text></g></g><g transform="translate(-142,-54) scale(1,1)"><g><path fill="none" stroke="none"/><text fill="#000000" stroke="none" font-family="Arial" font-size="13px" font-style="normal" font-weight="normal" text-decoration="none" x="453" y="621">+deleteTrip()</text></g></g><g transform="translate(-142,-54) scale(1,1)"><g><path fill="none" stroke="none"/><text fill="#000000" stroke="none" font-family="Arial" font-size="13px" font-style="normal" font-weight="normal" text-decoration="none" x="453" y="636">+getTrips()</text></g></g><g transform="translate(-142,-54) scale(1,1)"><g><path fill="none" stroke="none"/><text fill="#000000" stroke="none" font-family="Arial" font-size="13px" font-style="normal" font-weight="normal" text-decoration="none" x="453" y="651">+getDriverTrips()</text></g></g><g transform="translate(-142,-54) scale(1,1)"><path fill="none" stroke="#000000" d="M 470 391 L 420 255" stroke-miterlimit="10"/></g><g transform="translate(-142,-54) scale(1,1)"><g><path fill="none" stroke="none"/><text fill="#000000" stroke="none" font-family="Arial" font-size="13px" font-style="normal" font-weight="normal" text-decoration="none" x="475.5" y="380">1..*</text></g></g><g transform="translate(-142,-54) scale(1,1)"><g><path fill="none" stroke="none"/><text fill="#000000" stroke="none" font-family="Arial" font-size="13px" font-style="normal" font-weight="normal" text-decoration="none" x="435.5" y="277">1</text></g></g><g transform="translate(-142,-54) scale(1,1)"><rect fill="#C0C0C0" stroke="none" x="735" y="655" width="136" height="205" opacity="0.2"/></g><g transform="translate(-142,-54) scale(1,1)"><rect fill="#ffffff" stroke="none" x="728" y="648" width="136" height="205"/></g><g transform="translate(-142,-54) scale(1,1)"><path fill="none" stroke="#000000" d="M 728 648 L 864 648 L 864 853 L 728 853 L 728 648 Z Z" stroke-miterlimit="10"/></g><g transform="translate(-142,-54) scale(1,1)"><path fill="none" stroke="#000000" d="M 728 673 L 864 673" stroke-miterlimit="10"/></g><g transform="translate(-142,-54) scale(1,1)"><path fill="none" stroke="#000000" d="M 728 786 L 864 786" stroke-miterlimit="10"/></g><g transform="translate(-142,-54) scale(1,1)"><g><path fill="none" stroke="none"/><text fill="#000000" stroke="none" font-family="Arial" font-size="13px" font-style="normal" font-weight="bold" text-decoration="none" x="773.595947265625" y="666">Vehicle</text></g></g><g transform="translate(-142,-54) scale(1,1)"><g><path fill="none" stroke="none"/><text fill="#000000" stroke="none" font-family="Arial" font-size="13px" font-style="normal" font-weight="normal" text-decoration="none" x="733" y="689">+id: string</text></g></g><g transform="translate(-142,-54) scale(1,1)"><g><path fill="none" stroke="none"/><text fill="#000000" stroke="none" font-family="Arial" font-size="13px" font-style="normal" font-weight="normal" text-decoration="none" x="733" y="704">+plateNumber: int</text></g></g><g transform="translate(-142,-54) scale(1,1)"><g><path fill="none" stroke="none"/><text fill="#000000" stroke="none" font-family="Arial" font-size="13px" font-style="normal" font-weight="normal" text-decoration="none" x="733" y="718.5">+status: enum</text></g></g><g transform="translate(-142,-54) scale(1,1)"><g><path fill="none" stroke="none"/><text fill="#000000" stroke="none" font-family="Arial" font-size="13px" font-style="normal" font-weight="normal" text-decoration="none" x="733" y="734">+brand: string</text></g></g><g transform="translate(-142,-54) scale(1,1)"><g><path fill="none" stroke="none"/><text fill="#000000" stroke="none" font-family="Arial" font-size="13px" font-style="normal" font-weight="normal" text-decoration="none" x="733" y="749">+currentKm: number</text></g></g><g transform="translate(-142,-54) scale(1,1)"><g><path fill="none" stroke="none"/><text fill="#000000" stroke="none" font-family="Arial" font-size="13px" font-style="normal" font-weight="normal" text-decoration="none" x="733" y="763.5">+status: enum</text></g></g><g transform="translate(-142,-54) scale(1,1)"><g><path fill="none" stroke="none"/><text fill="#000000" stroke="none" font-family="Arial" font-size="13px" font-style="normal" font-weight="normal" text-decoration="none" x="733" y="779">+model: string</text></g></g><g transform="translate(-142,-54) scale(1,1)"><g><path fill="none" stroke="none"/><text fill="#000000" stroke="none" font-family="Arial" font-size="13px" font-style="normal" font-weight="normal" text-decoration="none" x="733" y="802">+createVehicle()</text></g></g><g transform="translate(-142,-54) scale(1,1)"><g><path fill="none" stroke="none"/><text fill="#000000" stroke="none" font-family="Arial" font-size="13px" font-style="normal" font-weight="normal" text-decoration="none" x="733" y="817">+updateVehicle()</text></g></g><g transform="translate(-142,-54) scale(1,1)"><g><path fill="none" stroke="none"/><text fill="#000000" stroke="none" font-family="Arial" font-size="13px" font-style="normal" font-weight="normal" text-decoration="none" x="733" y="832">+deleteVehicle()</text></g></g><g transform="translate(-142,-54) scale(1,1)"><g><path fill="none" stroke="none"/><text fill="#000000" stroke="none" font-family="Arial" font-size="13px" font-style="normal" font-weight="normal" text-decoration="none" x="733" y="847">+getVehicle()</text></g></g><g transform="translate(-142,-54) scale(1,1)"><path fill="none" stroke="#000000" d="M 592 584 L 727 694" stroke-miterlimit="10"/></g><g transform="translate(-142,-54) scale(1,1)"><g><path fill="none" stroke="none"/><text fill="#000000" stroke="none" font-family="Arial" font-size="13px" font-style="normal" font-weight="normal" text-decoration="none" x="596.5" y="621">1..*</text></g></g><g transform="translate(-142,-54) scale(1,1)"><g><path fill="none" stroke="none"/><text fill="#000000" stroke="none" font-family="Arial" font-size="13px" font-style="normal" font-weight="normal" text-decoration="none" x="699.5" y="701">1</text></g></g><g transform="translate(-142,-54) scale(1,1)"><rect fill="#C0C0C0" stroke="none" x="215" y="791" width="171.9443359375" height="220" opacity="0.2"/></g><g transform="translate(-142,-54) scale(1,1)"><rect fill="#ffffff" stroke="none" x="208" y="784" width="171.9443359375" height="220"/></g><g transform="translate(-142,-54) scale(1,1)"><path fill="none" stroke="#000000" d="M 208 784 L 379.9443359375 784 L 379.9443359375 1004 L 208 1004 L 208 784 Z Z" stroke-miterlimit="10"/></g><g transform="translate(-142,-54) scale(1,1)"><path fill="none" stroke="#000000" d="M 208 809 L 379.9443359375 809" stroke-miterlimit="10"/></g><g transform="translate(-142,-54) scale(1,1)"><path fill="none" stroke="#000000" d="M 208 937 L 379.9443359375 937" stroke-miterlimit="10"/></g><g transform="translate(-142,-54) scale(1,1)"><g><path fill="none" stroke="none"/><text fill="#000000" stroke="none" font-family="Arial" font-size="13px" font-style="normal" font-weight="bold" text-decoration="none" x="254.600830078125" y="802">Maintenance</text></g></g><g transform="translate(-142,-54) scale(1,1)"><g><path fill="none" stroke="none"/><text fill="#000000" stroke="none" font-family="Arial" font-size="13px" font-style="normal" font-weight="normal" text-decoration="none" x="213" y="825">+id: string</text></g></g><g transform="translate(-142,-54) scale(1,1)"><g><path fill="none" stroke="none"/><text fill="#000000" stroke="none" font-family="Arial" font-size="13px" font-style="normal" font-weight="normal" text-decoration="none" x="213" y="840">+maintenanceRuleId: MR</text></g></g><g transform="translate(-142,-54) scale(1,1)"><g><path fill="none" stroke="none"/><text fill="#000000" stroke="none" font-family="Arial" font-size="13px" font-style="normal" font-weight="normal" text-decoration="none" x="213" y="855">+description: string</text></g></g><g transform="translate(-142,-54) scale(1,1)"><g><path fill="none" stroke="none"/><text fill="#000000" stroke="none" font-family="Arial" font-size="13px" font-style="normal" font-weight="normal" text-decoration="none" x="213" y="870">+cost: string</text></g></g><g transform="translate(-142,-54) scale(1,1)"><g><path fill="none" stroke="none"/><text fill="#000000" stroke="none" font-family="Arial" font-size="13px" font-style="normal" font-weight="normal" text-decoration="none" x="213" y="885">+date: Date</text></g></g><g transform="translate(-142,-54) scale(1,1)"><g><path fill="none" stroke="none"/><text fill="#000000" stroke="none" font-family="Arial" font-size="13px" font-style="normal" font-weight="normal" text-decoration="none" x="213" y="900">+vehicleId: string</text></g></g><g transform="translate(-142,-54) scale(1,1)"><g><path fill="none" stroke="none"/><text fill="#000000" stroke="none" font-family="Arial" font-size="13px" font-style="normal" font-weight="normal" text-decoration="none" x="213" y="915">+kmAtMaintenance: number</text></g></g><g transform="translate(-142,-54) scale(1,1)"><g><path fill="none" stroke="none"/><text fill="#000000" stroke="none" font-family="Arial" font-size="13px" font-style="normal" font-weight="normal" text-decoration="none" x="213" y="930">+targetType: enum</text></g></g><g transform="translate(-142,-54) scale(1,1)"><g><path fill="none" stroke="none"/><text fill="#000000" stroke="none" font-family="Arial" font-size="13px" font-style="normal" font-weight="normal" text-decoration="none" x="213" y="953">+createMaintenance()</text></g></g><g transform="translate(-142,-54) scale(1,1)"><g><path fill="none" stroke="none"/><text fill="#000000" stroke="none" font-family="Arial" font-size="13px" font-style="normal" font-weight="normal" text-decoration="none" x="213" y="968">+updateMaintenance()</text></g></g><g transform="translate(-142,-54) scale(1,1)"><g><path fill="none" stroke="none"/><text fill="#000000" stroke="none" font-family="Arial" font-size="13px" font-style="normal" font-weight="normal" text-decoration="none" x="213" y="983">+deleteMaintenance()</text></g></g><g transform="translate(-142,-54) scale(1,1)"><g><path fill="none" stroke="none"/><text fill="#000000" stroke="none" font-family="Arial" font-size="13px" font-style="normal" font-weight="normal" text-decoration="none" x="213" y="998">+getMaintenance()</text></g></g><g transform="translate(-142,-54) scale(1,1)"><rect fill="#C0C0C0" stroke="none" x="183" y="1071" width="150.984375" height="145" opacity="0.2"/></g><g transform="translate(-142,-54) scale(1,1)"><rect fill="#ffffff" stroke="none" x="176" y="1064" width="150.984375" height="145"/></g><g transform="translate(-142,-54) scale(1,1)"><path fill="none" stroke="#000000" d="M 176 1064 L 326.984375 1064 L 326.984375 1209 L 176 1209 L 176 1064 Z Z" stroke-miterlimit="10"/></g><g transform="translate(-142,-54) scale(1,1)"><path fill="none" stroke="#000000" d="M 176 1089 L 326.984375 1089" stroke-miterlimit="10"/></g><g transform="translate(-142,-54) scale(1,1)"><path fill="none" stroke="#000000" d="M 176 1142 L 326.984375 1142" stroke-miterlimit="10"/></g><g transform="translate(-142,-54) scale(1,1)"><g><path fill="none" stroke="none"/><text fill="#000000" stroke="none" font-family="Arial" font-size="13px" font-style="normal" font-weight="bold" text-decoration="none" x="198.035400390625" y="1082">MaintenanceRule</text></g></g><g transform="translate(-142,-54) scale(1,1)"><g><path fill="none" stroke="none"/><text fill="#000000" stroke="none" font-family="Arial" font-size="13px" font-style="normal" font-weight="normal" text-decoration="none" x="181" y="1105">+id: string</text></g></g><g transform="translate(-142,-54) scale(1,1)"><g><path fill="none" stroke="none"/><text fill="#000000" stroke="none" font-family="Arial" font-size="13px" font-style="normal" font-weight="normal" text-decoration="none" x="181" y="1119.5">+type: enum</text></g></g><g transform="translate(-142,-54) scale(1,1)"><g><path fill="none" stroke="none"/><text fill="#000000" stroke="none" font-family="Arial" font-size="13px" font-style="normal" font-weight="normal" text-decoration="none" x="181" y="1135">+recommendedKm: float</text></g></g><g transform="translate(-142,-54) scale(1,1)"><g><path fill="none" stroke="none"/><text fill="#000000" stroke="none" font-family="Arial" font-size="13px" font-style="normal" font-weight="normal" text-decoration="none" x="181" y="1158">+createRule()</text></g></g><g transform="translate(-142,-54) scale(1,1)"><g><path fill="none" stroke="none"/><text fill="#000000" stroke="none" font-family="Arial" font-size="13px" font-style="normal" font-weight="normal" text-decoration="none" x="181" y="1173">+updateRule()</text></g></g><g transform="translate(-142,-54) scale(1,1)"><g><path fill="none" stroke="none"/><text fill="#000000" stroke="none" font-family="Arial" font-size="13px" font-style="normal" font-weight="normal" text-decoration="none" x="181" y="1188">+deleteRule()</text></g></g><g transform="translate(-142,-54) scale(1,1)"><g><path fill="none" stroke="none"/><text fill="#000000" stroke="none" font-family="Arial" font-size="13px" font-style="normal" font-weight="normal" text-decoration="none" x="181" y="1203">+getRules()</text></g></g><g transform="translate(-142,-54) scale(1,1)"><path fill="none" stroke="#000000" d="M 264 1063 L 274 1005" stroke-miterlimit="10"/></g><g transform="translate(-142,-54) scale(1,1)"><g><path fill="none" stroke="none"/><text fill="#000000" stroke="none" font-family="Arial" font-size="13px" font-style="normal" font-weight="normal" text-decoration="none" x="274.5" y="1052">1</text></g></g><g transform="translate(-142,-54) scale(1,1)"><g><path fill="none" stroke="none"/><text fill="#000000" stroke="none" font-family="Arial" font-size="13px" font-style="normal" font-weight="normal" text-decoration="none" x="282.5" y="1028">0..*</text></g></g><g transform="translate(-142,-54) scale(1,1)"><rect fill="#C0C0C0" stroke="none" x="655" y="943" width="152" height="190" opacity="0.2"/></g><g transform="translate(-142,-54) scale(1,1)"><rect fill="#ffffff" stroke="none" x="648" y="936" width="152" height="190"/></g><g transform="translate(-142,-54) scale(1,1)"><path fill="none" stroke="#000000" d="M 648 936 L 800 936 L 800 1126 L 648 1126 L 648 936 Z Z" stroke-miterlimit="10"/></g><g transform="translate(-142,-54) scale(1,1)"><path fill="none" stroke="#000000" d="M 648 961 L 800 961" stroke-miterlimit="10"/></g><g transform="translate(-142,-54) scale(1,1)"><path fill="none" stroke="#000000" d="M 648 1059 L 800 1059" stroke-miterlimit="10"/></g><g transform="translate(-142,-54) scale(1,1)"><g><path fill="none" stroke="none"/><text fill="#000000" stroke="none" font-family="Arial" font-size="13px" font-style="normal" font-weight="bold" text-decoration="none" x="712.196533203125" y="954">Tire</text></g></g><g transform="translate(-142,-54) scale(1,1)"><g><path fill="none" stroke="none"/><text fill="#000000" stroke="none" font-family="Arial" font-size="13px" font-style="normal" font-weight="normal" text-decoration="none" x="653" y="977">+id: string</text></g></g><g transform="translate(-142,-54) scale(1,1)"><g><path fill="none" stroke="none"/><text fill="#000000" stroke="none" font-family="Arial" font-size="13px" font-style="normal" font-weight="normal" text-decoration="none" x="653" y="992">+serialNumber: number</text></g></g><g transform="translate(-142,-54) scale(1,1)"><g><path fill="none" stroke="none"/><text fill="#000000" stroke="none" font-family="Arial" font-size="13px" font-style="normal" font-weight="normal" text-decoration="none" x="653" y="1007">+wearLevel: string</text></g></g><g transform="translate(-142,-54) scale(1,1)"><g><path fill="none" stroke="none"/><text fill="#000000" stroke="none" font-family="Arial" font-size="13px" font-style="normal" font-weight="normal" text-decoration="none" x="653" y="1022">+position: string</text></g></g><g transform="translate(-142,-54) scale(1,1)"><g><path fill="none" stroke="none"/><text fill="#000000" stroke="none" font-family="Arial" font-size="13px" font-style="normal" font-weight="normal" text-decoration="none" x="653" y="1037">+installedOn: enum</text></g></g><g transform="translate(-142,-54) scale(1,1)"><g><path fill="none" stroke="none"/><text fill="#000000" stroke="none" font-family="Arial" font-size="13px" font-style="normal" font-weight="normal" text-decoration="none" x="653" y="1052">+vehicleId: string</text></g></g><g transform="translate(-142,-54) scale(1,1)"><g><path fill="none" stroke="none"/><text fill="#000000" stroke="none" font-family="Arial" font-size="13px" font-style="normal" font-weight="normal" text-decoration="none" x="653" y="1075">+createTire()</text></g></g><g transform="translate(-142,-54) scale(1,1)"><g><path fill="none" stroke="none"/><text fill="#000000" stroke="none" font-family="Arial" font-size="13px" font-style="normal" font-weight="normal" text-decoration="none" x="653" y="1090">+updateTire()</text></g></g><g transform="translate(-142,-54) scale(1,1)"><g><path fill="none" stroke="none"/><text fill="#000000" stroke="none" font-family="Arial" font-size="13px" font-style="normal" font-weight="normal" text-decoration="none" x="653" y="1105">+deleteTire()</text></g></g><g transform="translate(-142,-54) scale(1,1)"><g><path fill="none" stroke="none"/><text fill="#000000" stroke="none" font-family="Arial" font-size="13px" font-style="normal" font-weight="normal" text-decoration="none" x="653" y="1120">+getTires()</text></g></g><g transform="translate(-142,-54) scale(1,1)"><path fill="none" stroke="#000000" d="M 749 935 L 769 854" stroke-miterlimit="10"/></g><g transform="translate(-142,-54) scale(1,1)"><g><path fill="none" stroke="none"/><text fill="#000000" stroke="none" font-family="Arial" font-size="13px" font-style="normal" font-weight="normal" text-decoration="none" x="766.220458984375" y="924">*</text></g></g><g transform="translate(-142,-54) scale(1,1)"><g><path fill="none" stroke="none"/><text fill="#000000" stroke="none" font-family="Arial" font-size="13px" font-style="normal" font-weight="normal" text-decoration="none" x="772.5" y="879">1</text></g></g><g transform="translate(-142,-54) scale(1,1)"><path fill="none" stroke="#000000" d="M 381 869 L 727 770" stroke-miterlimit="10"/></g><g transform="translate(-142,-54) scale(1,1)"><g><path fill="none" stroke="none"/><text fill="#000000" stroke="none" font-family="Arial" font-size="13px" font-style="normal" font-weight="normal" text-decoration="none" x="389.5" y="885">1..*</text></g></g><g transform="translate(-142,-54) scale(1,1)"><g><path fill="none" stroke="none"/><text fill="#000000" stroke="none" font-family="Arial" font-size="13px" font-style="normal" font-weight="normal" text-decoration="none" x="705.5" y="792">1</text></g></g></g></svg>